<svg xmlns="http://www.w3.org/2000/svg" xmlns:xlink="http://www.w3.org/1999/xlink" width="694" height="510" viewBox="0 0 694 510">
  <defs>
    <style>
      .cls-1 {
        fill: none;
      }

      .cls-2 {
        fill: #c9c6fa;
      }

      .cls-3 {
        fill: #18ae94;
      }

      .cls-4 {
        clip-path: url(#clip-path);
      }

      .cls-5 {
        fill: #005495;
      }

      .cls-6 {
        fill: #0abcc2;
      }

      .cls-7 {
        fill: #cbe5f9;
      }

      .cls-8 {
        fill: #fff;
      }

      .cls-9 {
        fill: #084270;
      }

      .cls-10 {
        fill: #222042;
        opacity: 0.4;
      }

      .cls-11 {
        fill: #12345d;
      }

      .cls-12 {
        fill: #ffcd6e;
      }

      .cls-13 {
        fill: #d5d4eb;
      }

      .cls-14 {
        fill: #38356e;
      }

      .cls-15 {
        fill: #ff5e63;
      }

      .cls-16 {
        fill: #cbcae0;
      }

      .cls-17 {
        fill: #014a83;
      }
    </style>
    <clipPath id="clip-path">
      <rect id="Rectangle_5201" data-name="Rectangle 5201" class="cls-1" width="508.918" height="393.945"/>
    </clipPath>
  </defs>
  <g id="photo" transform="translate(-240 -1184)">
    <rect id="Rectangle_5032" data-name="Rectangle 5032" class="cls-1" width="694" height="510" transform="translate(240 1184)"/>
    <g id="Group_7879" data-name="Group 7879" transform="translate(381.082 1279.219)">
      <path id="Path_2998" data-name="Path 2998" class="cls-2" d="M17.467,240.758l-1.528,5.7-1.529,5.7-4.175-4.175L6.06,243.815l5.7-1.529Z"/>
      <path id="Path_2999" data-name="Path 2999" class="cls-2" d="M163.919,45.535l-1.528,5.7-1.529,5.7-4.175-4.175-4.175-4.176,5.7-1.528Z"/>
      <path id="Path_3000" data-name="Path 3000" class="cls-2" d="M26.135,30.083l-1.528,5.7-1.529,5.7L18.9,37.315,14.728,33.14l5.7-1.529Z"/>
      <path id="Path_3001" data-name="Path 3001" class="cls-2" d="M287.282,303.229l-1.528,5.7-1.529,5.7-4.175-4.175-4.175-4.175,5.7-1.529Z"/>
      <path id="Path_3002" data-name="Path 3002" class="cls-3" d="M321.747,0l-5.7,1.528-5.705,1.528,4.176,4.176,4.176,4.176L320.219,5.7Z" transform="translate(14 -11)"/>
      <path id="Path_3003" data-name="Path 3003" class="cls-2" d="M391.094,229.56l-1.528,5.7-1.529,5.7-4.175-4.175-4.175-4.175,5.7-1.529Z"/>
      <path id="Path_3004" data-name="Path 3004" class="cls-2" d="M137.105,261l-1.528,5.7-1.529,5.7-4.175-4.175-4.175-4.176,5.7-1.528Z"/>
      <g id="Group_7878" data-name="Group 7878" transform="translate(-48.082 -37.219)">
        <g id="Group_7877" data-name="Group 7877" class="cls-4">
          <path id="Path_3005" data-name="Path 3005" class="cls-5" d="M111.763,176.613a81.121,81.121,0,0,1,16.228,1.636,80.089,80.089,0,0,1,28.8,12.117,80.761,80.761,0,0,1,29.175,35.429,80.125,80.125,0,0,1,4.692,15.116,81.307,81.307,0,0,1,0,32.457,80.089,80.089,0,0,1-12.117,28.8,80.76,80.76,0,0,1-35.429,29.175,80.123,80.123,0,0,1-15.116,4.692,81.307,81.307,0,0,1-32.457,0,80.091,80.091,0,0,1-28.8-12.117,80.761,80.761,0,0,1-29.175-35.429,80.124,80.124,0,0,1-4.693-15.116,81.3,81.3,0,0,1,0-32.457,80.087,80.087,0,0,1,12.117-28.8,80.762,80.762,0,0,1,35.43-29.175,80.127,80.127,0,0,1,15.117-4.692A81.122,81.122,0,0,1,111.763,176.613Zm0,160.053A79.527,79.527,0,1,0,32.235,257.14,79.617,79.617,0,0,0,111.763,336.666Z" transform="translate(7.394 41.264)"/>
          <path id="Ellipse_2" data-name="Ellipse 2" class="cls-5" d="M80.027-.5A81.12,81.12,0,0,1,96.255,1.136a80.089,80.089,0,0,1,28.8,12.117,80.76,80.76,0,0,1,29.175,35.429A80.125,80.125,0,0,1,158.917,63.8a81.308,81.308,0,0,1,0,32.457,80.089,80.089,0,0,1-12.117,28.8,80.76,80.76,0,0,1-35.429,29.175,80.125,80.125,0,0,1-15.116,4.692,81.308,81.308,0,0,1-32.457,0A80.089,80.089,0,0,1,35,146.8,80.76,80.76,0,0,1,5.828,111.371,80.125,80.125,0,0,1,1.136,96.255a81.307,81.307,0,0,1,0-32.457A80.089,80.089,0,0,1,13.253,35,80.76,80.76,0,0,1,48.682,5.828,80.125,80.125,0,0,1,63.8,1.136,81.12,81.12,0,0,1,80.027-.5Zm0,160.053A79.527,79.527,0,1,0,.5,80.027,79.617,79.617,0,0,0,80.027,159.553Z" transform="translate(139.478 14.243)"/>
          <path id="Path_3006" data-name="Path 3006" class="cls-2" d="M240.75,237.317a40.387,40.387,0,1,1-15.77,3.184A40.259,40.259,0,0,1,240.75,237.317Zm0,80.028a39.514,39.514,0,1,0-39.513-39.514A39.559,39.559,0,0,0,240.75,317.345Z" transform="translate(46.768 55.407)"/>
          <path id="Ellipse_3" data-name="Ellipse 3" class="cls-5" d="M80.027-.5A81.12,81.12,0,0,1,96.255,1.136a80.089,80.089,0,0,1,28.8,12.117,80.76,80.76,0,0,1,29.175,35.429A80.125,80.125,0,0,1,158.917,63.8a81.308,81.308,0,0,1,0,32.457,80.089,80.089,0,0,1-12.117,28.8,80.76,80.76,0,0,1-35.429,29.175,80.125,80.125,0,0,1-15.116,4.692,81.308,81.308,0,0,1-32.457,0A80.089,80.089,0,0,1,35,146.8,80.76,80.76,0,0,1,5.828,111.371,80.125,80.125,0,0,1,1.136,96.255a81.307,81.307,0,0,1,0-32.457A80.089,80.089,0,0,1,13.253,35,80.76,80.76,0,0,1,48.682,5.828,80.125,80.125,0,0,1,63.8,1.136,81.12,81.12,0,0,1,80.027-.5Zm0,160.053A79.527,79.527,0,1,0,.5,80.027,79.617,79.617,0,0,0,80.027,159.553Z" transform="translate(348.248 183.344)"/>
          <path id="Path_3007" data-name="Path 3007" class="cls-6" d="M84.319,27.61a1.851,1.851,0,0,0,0-3.7,1.851,1.851,0,0,0,0,3.7" transform="translate(19.228 5.571)"/>
          <path id="Path_3008" data-name="Path 3008" class="cls-3" d="M379.441,45.741a1.851,1.851,0,0,0,0-3.7,1.851,1.851,0,0,0,0,3.7" transform="translate(87.986 9.795)"/>
          <path id="Path_3009" data-name="Path 3009" class="cls-2" d="M330.59,308.631a1.851,1.851,0,0,0,0-3.7,1.851,1.851,0,0,0,0,3.7" transform="translate(76.605 71.043)"/>
          <path id="Path_3010" data-name="Path 3010" class="cls-2" d="M242.959,273.377a1.851,1.851,0,0,0,0-3.7,1.851,1.851,0,0,0,0,3.7" transform="translate(56.189 62.83)"/>
          <path id="Path_3011" data-name="Path 3011" class="cls-2" d="M87.341,292.515a1.851,1.851,0,0,0,0-3.7,1.851,1.851,0,0,0,0,3.7" transform="translate(19.932 67.289)"/>
          <path id="Path_3012" data-name="Path 3012" class="cls-2" d="M216.268,59.338a1.851,1.851,0,0,0,0-3.7,1.851,1.851,0,0,0,0,3.7" transform="translate(49.97 12.963)"/>
          <path id="Path_3013" data-name="Path 3013" class="cls-3" d="M3.573,165.787c4.761,0,4.768-7.4,0-7.4s-4.768,7.4,0,7.4" transform="translate(0 36.902)"/>
          <path id="Path_3014" data-name="Path 3014" class="cls-3" d="M246.318,20.24c4.761,0,4.768-7.4,0-7.4s-4.768,7.4,0,7.4" transform="translate(56.555 2.992)"/>
          <path id="Path_3015" data-name="Path 3015" class="cls-3" d="M392.369,138.591c4.761,0,4.767-7.4,0-7.4s-4.768,7.4,0,7.4" transform="translate(90.582 30.565)"/>
          <path id="Path_3016" data-name="Path 3016" class="cls-2" d="M148.758,313.5h-.621a4.1,4.1,0,0,0-2.615,1.084,2.759,2.759,0,0,0-.764,1.19,2.794,2.794,0,0,0-.319,1.425l.133.984a3.682,3.682,0,0,0,.951,1.631c.249.194.5.386.748.578a3.68,3.68,0,0,0,1.867.506h.621a2.793,2.793,0,0,0,1.425-.318,3.337,3.337,0,0,0,1.956-1.956,2.793,2.793,0,0,0,.318-1.425c-.044-.328-.088-.656-.132-.983a3.693,3.693,0,0,0-.952-1.632c-.249-.194-.5-.386-.748-.578a3.68,3.68,0,0,0-1.867-.506" transform="translate(33.651 73.04)"/>
          <path id="Path_3017" data-name="Path 3017" class="cls-7" d="M128.467,151.36c2.71-22.721,5.405-45.9.921-68.337-1.7-8.49-5.716-18.061-14.144-20.041-4.662-1.095-9.63.557-13.532,3.333s-7.342,4.95-10.314,8.7C88.7,68.2,87.488,60.9,85.43,53.855S80.275,39.77,74.706,35s-14.1-6.686-20.391-2.922c-4.346,2.6-6.928,7.324-8.9,11.987-9.782,23.127-7.778,48.538,3.08,71.18-3.05-4.762-6.212-9.641-10.808-12.934s-11.028-4.671-15.946-1.88c-5.531,3.139-7.341,10.183-7.965,16.513-3.221,32.684,11.9,66.09,38.951,84.716-7.133-10.216-24.441-10.765-32.208-1.021-7.912,9.928-4.806,24.609.652,36.071,15.03,31.564,45.657,55.224,79.995,61.8,11.356-22.605,20.191-47.02,28.24-71,7.949-23.688-3.9-51.329-.938-76.139" transform="translate(3.109 7.009)"/>
          <path id="Path_3018" data-name="Path 3018" class="cls-8" d="M85.984,267.87a.5.5,0,0,1-.485-.38c-8.457-34.248-15.43-69.322-20.727-104.249S55.737,92.749,53.66,57.533a.5.5,0,1,1,1-.059A1163,1163,0,0,0,86.47,267.25a.5.5,0,0,1-.486.62Z" transform="translate(12.618 13.397)"/>
          <path id="Path_3019" data-name="Path 3019" class="cls-8" d="M69.849,147.6a.5.5,0,0,1-.175-.032,65.374,65.374,0,0,1-13.262-6.79A68.81,68.81,0,0,1,35.86,119.432a65.376,65.376,0,0,1-6.285-13.509.5.5,0,0,1,.949-.314,66.489,66.489,0,0,0,39.5,41.02.5.5,0,0,1-.175.969Z" transform="translate(7.001 24.641)"/>
          <path id="Path_3020" data-name="Path 3020" class="cls-8" d="M58.934,125.576a.5.5,0,0,1-.238-.94A80.788,80.788,0,0,0,98.835,71.341a.5.5,0,0,1,.977.213,79.1,79.1,0,0,1-5.558,16.462,82.948,82.948,0,0,1-20.8,27.613,79.092,79.092,0,0,1-14.287,9.888A.5.5,0,0,1,58.934,125.576Z" transform="translate(13.731 16.646)"/>
          <path id="Path_3021" data-name="Path 3021" class="cls-8" d="M83.741,208.046h0a66.625,66.625,0,0,1-53.81-28.506.5.5,0,1,1,.825-.565,65.337,65.337,0,0,0,52.988,28.071.5.5,0,0,1,0,1Z" transform="translate(7.069 41.764)"/>
          <path id="Path_3022" data-name="Path 3022" class="cls-7" d="M291.56,151.36c-2.71-22.721-5.405-45.9-.921-68.337,1.7-8.49,5.716-18.061,14.144-20.041,4.663-1.095,9.63.557,13.532,3.333s7.342,4.95,10.315,8.7c2.7-6.82,3.91-14.125,5.968-21.165S339.753,39.77,345.321,35s14.1-6.686,20.391-2.922c4.346,2.6,6.928,7.324,8.9,11.987,9.783,23.127,7.778,48.538-3.08,71.18,3.05-4.762,6.212-9.641,10.808-12.934s11.028-4.671,15.946-1.88c5.531,3.139,7.341,10.183,7.965,16.513,3.221,32.684-11.9,66.09-38.951,84.716,7.133-10.216,24.441-10.765,32.208-1.021,7.912,9.928,4.806,24.609-.652,36.071-15.03,31.564-45.657,55.224-79.995,61.8-11.356-22.605-20.191-47.02-28.24-71-7.949-23.688,3.9-51.329.938-76.139" transform="translate(67.058 7.009)"/>
          <path id="Path_3023" data-name="Path 3023" class="cls-8" d="M317.6,267.87a.5.5,0,0,1-.486-.62A1162.893,1162.893,0,0,0,348.923,57.475a.5.5,0,1,1,1,.059c-2.077,35.215-5.815,70.78-11.112,105.707s-12.27,70-20.727,104.249A.5.5,0,0,1,317.6,267.87Z" transform="translate(73.994 13.397)"/>
          <path id="Path_3024" data-name="Path 3024" class="cls-8" d="M335.24,147.6a.5.5,0,0,1-.175-.969,66.489,66.489,0,0,0,39.5-41.02.5.5,0,1,1,.949.314,65.376,65.376,0,0,1-6.285,13.509,68.81,68.81,0,0,1-20.553,21.344,65.374,65.374,0,0,1-13.262,6.79A.5.5,0,0,1,335.24,147.6Z" transform="translate(78.105 24.641)"/>
          <path id="Path_3025" data-name="Path 3025" class="cls-8" d="M346.267,125.576a.5.5,0,0,1-.237-.06,79.093,79.093,0,0,1-14.287-9.888,82.947,82.947,0,0,1-20.8-27.613,79.1,79.1,0,0,1-5.558-16.462.5.5,0,0,1,.977-.213A80.787,80.787,0,0,0,346.5,124.635a.5.5,0,0,1-.238.94Z" transform="translate(71.264 16.646)"/>
          <path id="Path_3026" data-name="Path 3026" class="cls-8" d="M323.918,208.046a.5.5,0,0,1,0-1A65.337,65.337,0,0,0,376.9,178.976a.5.5,0,0,1,.825.565,66.625,66.625,0,0,1-53.81,28.506Z" transform="translate(75.467 41.764)"/>
          <path id="Path_3027" data-name="Path 3027" class="cls-5" d="M279.658,132.646,295.2,117.1l-9.5-9.5a.39.39,0,0,1,.08-.162l13.118-.021V85.472H285.681a2.245,2.245,0,0,0-.141-.3l9.155-9.156L279.152,60.47,270,69.626a4.014,4.014,0,0,0-.525-.243V56.771l-21.97.02V69.484a6.992,6.992,0,0,0-.667.3L238.041,61,222.5,76.538l8.975,8.974a6.936,6.936,0,0,1-.243.688H218.82v21.99h12.935a3.69,3.69,0,0,1,.223.506l-8.934,8.934,15.543,15.543,9.358-9.358a2.714,2.714,0,0,0,.3.1l-.021,12.956h21.991V123.41c.06-.021.1-.06.142-.06Zm-34.441-22.718a18.908,18.908,0,1,1,26.761,0,18.9,18.9,0,0,1-26.761,0" transform="translate(50.981 13.227)"/>
          <path id="Path_3028" data-name="Path 3028" class="cls-6" d="M273.166,68.654H284.92V61.47a.211.211,0,0,1,.092-.031l4.968,4.952,8.3-8.3-5-5a1.07,1.07,0,0,0,.062-.168h6.924V41.172h-6.924a2.251,2.251,0,0,0-.107-.291L298,36.112l-8.315-8.3-4.8,4.8a3.816,3.816,0,0,0-.367-.137V25.825H272.769v6.786a3.8,3.8,0,0,1-.351.169l-4.693-4.693L259.41,36.4l4.891,4.891a2.178,2.178,0,0,1-.107.275h-6.756V53.323h7.076c.016.046.047.091.076.153l-4.906,4.891L268,66.682l5.09-5.09c.031.015.062.015.076.031Zm-4.433-21.613A10.111,10.111,0,1,1,278.852,57.16a10.107,10.107,0,0,1-10.119-10.119" transform="translate(59.978 6.017)"/>
          <rect id="Rectangle_5135" data-name="Rectangle 5135" class="cls-9" width="53.964" height="60.606" transform="translate(212.924 303.883)"/>
          <rect id="Rectangle_5136" data-name="Rectangle 5136" class="cls-10" width="53.964" height="21.065" transform="translate(212.924 303.883)"/>
          <path id="Path_3029" data-name="Path 3029" class="cls-11" d="M254.751,300.635H153.523v-6.709A10.225,10.225,0,0,1,163.747,283.7h80.779a10.225,10.225,0,0,1,10.225,10.225Z" transform="translate(35.768 66.097)"/>
          <path id="Path_3030" data-name="Path 3030" class="cls-9" d="M362.771,289.075H82.974A9.873,9.873,0,0,1,73.1,279.2V103.4a9.873,9.873,0,0,1,9.872-9.874h279.8a9.873,9.873,0,0,1,9.874,9.874V279.2a9.873,9.873,0,0,1-9.874,9.874" transform="translate(17.031 21.79)"/>
          <path id="Path_3031" data-name="Path 3031" class="cls-8" d="M79.532,275.666V103.938a3.981,3.981,0,0,1,3.981-3.98H359.236a3.98,3.98,0,0,1,3.981,3.98V275.665a3.982,3.982,0,0,1-3.981,3.983H83.513a3.982,3.982,0,0,1-3.981-3.981" transform="translate(18.529 23.288)"/>
          <path id="Path_3032" data-name="Path 3032" class="cls-5" d="M157.366,158.536H23.148a2.717,2.717,0,0,1-2.717-2.716V72.74a2.717,2.717,0,0,1,2.717-2.716H157.366a2.716,2.716,0,0,1,2.716,2.716V155.82a2.716,2.716,0,0,1-2.716,2.716" transform="translate(4.76 16.314)"/>
          <path id="Path_3033" data-name="Path 3033" class="cls-8" d="M21.993,152.792V78a2.14,2.14,0,0,1,2.14-2.14H155.651A2.141,2.141,0,0,1,157.792,78v74.794a2.141,2.141,0,0,1-2.142,2.14H24.133a2.14,2.14,0,0,1-2.14-2.14" transform="translate(5.124 17.673)"/>
          <path id="Path_3034" data-name="Path 3034" class="cls-8" d="M132.07,73.277a1.769,1.769,0,1,1-1.769-1.768,1.769,1.769,0,0,1,1.769,1.768" transform="translate(29.946 16.66)"/>
          <path id="Path_3035" data-name="Path 3035" class="cls-8" d="M127.331,73.277a1.769,1.769,0,1,1-1.768-1.768,1.768,1.768,0,0,1,1.768,1.768" transform="translate(28.842 16.66)"/>
          <path id="Path_3036" data-name="Path 3036" class="cls-8" d="M122.592,73.277a1.769,1.769,0,1,1-1.768-1.768,1.768,1.768,0,0,1,1.768,1.768" transform="translate(27.738 16.66)"/>
          <path id="Path_3037" data-name="Path 3037" class="cls-12" d="M40.236,88.688a7.149,7.149,0,1,1-7.15-7.149,7.15,7.15,0,0,1,7.15,7.149" transform="translate(6.043 18.997)"/>
          <rect id="Rectangle_5137" data-name="Rectangle 5137" class="cls-13" width="106.61" height="3.377" transform="translate(49.563 100.592)"/>
          <rect id="Rectangle_5138" data-name="Rectangle 5138" class="cls-13" width="72.558" height="3.377" transform="translate(49.562 105.997)"/>
          <rect id="Rectangle_5139" data-name="Rectangle 5139" class="cls-13" width="37.73" height="3.377" transform="translate(49.562 111.735)"/>
          <path id="Path_3038" data-name="Path 3038" class="cls-6" d="M40.236,107.156a7.149,7.149,0,1,1-7.15-7.15,7.149,7.149,0,0,1,7.15,7.15" transform="translate(6.043 23.3)"/>
          <rect id="Rectangle_5140" data-name="Rectangle 5140" class="cls-13" width="106.61" height="3.377" transform="translate(49.563 123.362)"/>
          <rect id="Rectangle_5141" data-name="Rectangle 5141" class="cls-13" width="72.558" height="3.377" transform="translate(49.562 128.766)"/>
          <rect id="Rectangle_5142" data-name="Rectangle 5142" class="cls-13" width="37.73" height="3.377" transform="translate(49.562 134.505)"/>
          <path id="Path_3039" data-name="Path 3039" class="cls-5" d="M40.236,125.623a7.149,7.149,0,1,1-7.15-7.15,7.15,7.15,0,0,1,7.15,7.15" transform="translate(6.043 27.602)"/>
          <rect id="Rectangle_5143" data-name="Rectangle 5143" class="cls-13" width="106.61" height="3.377" transform="translate(49.563 146.132)"/>
          <rect id="Rectangle_5144" data-name="Rectangle 5144" class="cls-13" width="72.558" height="3.377" transform="translate(49.562 151.536)"/>
          <rect id="Rectangle_5145" data-name="Rectangle 5145" class="cls-13" width="37.73" height="3.377" transform="translate(49.562 157.274)"/>
          <path id="Path_3040" data-name="Path 3040" class="cls-14" d="M139.416,149.261h-1.849v-.5h1.6v-1.6h.5v1.849A.25.25,0,0,1,139.416,149.261Z" transform="translate(32.05 34.286)"/>
          <path id="Line_18" data-name="Line 18" class="cls-14" d="M144.752.25H141.78v-.5h2.972Zm-5.944,0h-2.972v-.5h2.972Zm-5.944,0h-2.972v-.5h2.972Zm-5.944,0h-2.972v-.5h2.972Zm-5.944,0H118v-.5h2.972Zm-5.944,0H112.06v-.5h2.972Zm-5.944,0h-2.972v-.5h2.972Zm-5.944,0h-2.972v-.5h2.972ZM97.2.25H94.228v-.5H97.2Zm-5.944,0H88.284v-.5h2.972Zm-5.944,0H82.34v-.5h2.972Zm-5.944,0H76.4v-.5h2.972Zm-5.944,0H70.452v-.5h2.972ZM67.48.25H64.508v-.5H67.48Zm-5.944,0H58.564v-.5h2.972Zm-5.944,0H52.62v-.5h2.972Zm-5.944,0H46.676v-.5h2.972ZM43.7.25H40.732v-.5H43.7ZM37.76.25H34.788v-.5H37.76Zm-5.944,0H28.844v-.5h2.972Zm-5.944,0H22.9v-.5h2.972Zm-5.944,0H16.956v-.5h2.972Zm-5.944,0H11.012v-.5h2.972ZM8.04.25H5.068v-.5H8.04ZM2.1.25H0v-.5H2.1Z" transform="translate(21.2 183.296)"/>
          <path id="Path_3041" data-name="Path 3041" class="cls-14" d="M16.058,149.261H14.209a.25.25,0,0,1-.25-.25v-1.849h.5v1.6h1.6Z" transform="translate(3.31 34.286)"/>
          <path id="Line_19" data-name="Line 19" class="cls-14" d="M.25,95.253h-.5v-3.03h.5Zm0-6.06h-.5v-3.03h.5Zm0-6.06h-.5V80.1h.5Zm0-6.06h-.5v-3.03h.5Zm0-6.06h-.5v-3.03h.5Zm0-6.06h-.5v-3.03h.5Zm0-6.06h-.5v-3.03h.5Zm0-6.06h-.5V49.8h.5Zm0-6.06h-.5v-3.03h.5Zm0-6.06h-.5v-3.03h.5Zm0-6.06h-.5v-3.03h.5Zm0-6.06h-.5v-3.03h.5Zm0-6.06h-.5V19.5h.5Zm0-6.06h-.5v-3.03h.5Zm0-6.06h-.5V7.383h.5Zm0-6.06h-.5V1.323h.5Z" transform="translate(17.519 82.459)"/>
          <path id="Path_3042" data-name="Path 3042" class="cls-14" d="M14.459,65.713h-.5V63.863a.25.25,0,0,1,.25-.25h1.849v.5h-1.6Z" transform="translate(3.31 14.879)"/>
          <path id="Line_20" data-name="Line 20" class="cls-14" d="M144.752.25h-2.1v-.5h2.1Zm-5.068,0h-2.972v-.5h2.972Zm-5.944,0h-2.972v-.5h2.972ZM127.8.25h-2.972v-.5H127.8Zm-5.944,0H118.88v-.5h2.972Zm-5.944,0h-2.972v-.5h2.972Zm-5.944,0h-2.972v-.5h2.972Zm-5.944,0h-2.972v-.5h2.972Zm-5.944,0H95.1v-.5h2.972Zm-5.944,0H89.16v-.5h2.972Zm-5.944,0H83.216v-.5h2.972Zm-5.944,0H77.272v-.5h2.972ZM74.3.25H71.328v-.5H74.3Zm-5.944,0H65.384v-.5h2.972Zm-5.944,0H59.44v-.5h2.972Zm-5.944,0H53.5v-.5h2.972Zm-5.944,0H47.552v-.5h2.972ZM44.58.25H41.608v-.5H44.58Zm-5.944,0H35.664v-.5h2.972Zm-5.944,0H29.72v-.5h2.972Zm-5.944,0H23.776v-.5h2.972ZM20.8.25H17.832v-.5H20.8ZM14.86.25H11.888v-.5H14.86ZM8.916.25H5.944v-.5H8.916ZM2.972.25H0v-.5H2.972Z" transform="translate(23.033 78.742)"/>
          <path id="Path_3043" data-name="Path 3043" class="cls-14" d="M139.666,65.713h-.5v-1.6h-1.6v-.5h1.849a.25.25,0,0,1,.25.25Z" transform="translate(32.05 14.879)"/>
          <path id="Line_21" data-name="Line 21" class="cls-14" d="M.25,93.93h-.5V90.9h.5Zm0-6.06h-.5V84.84h.5Zm0-6.06h-.5V78.78h.5Zm0-6.06h-.5V72.72h.5Zm0-6.06h-.5V66.66h.5Zm0-6.06h-.5V60.6h.5Zm0-6.06h-.5V54.54h.5Zm0-6.06h-.5V48.48h.5Zm0-6.06h-.5V42.42h.5Zm0-6.06h-.5V36.36h.5Zm0-6.06h-.5V30.3h.5Zm0-6.06h-.5V24.24h.5Zm0-6.06h-.5V18.18h.5Zm0-6.06h-.5V12.12h.5Zm0-6.06h-.5V6.06h.5Zm0-6.06h-.5V0h.5Z" transform="translate(171.466 84.327)"/>
          <rect id="Rectangle_5146" data-name="Rectangle 5146" class="cls-9" width="6.029" height="6.029" transform="translate(14.505 75.727)"/>
          <rect id="Rectangle_5147" data-name="Rectangle 5147" class="cls-9" width="6.029" height="6.029" transform="translate(14.505 180.282)"/>
          <rect id="Rectangle_5148" data-name="Rectangle 5148" class="cls-9" width="6.029" height="6.029" transform="translate(168.452 75.727)"/>
          <rect id="Rectangle_5149" data-name="Rectangle 5149" class="cls-14" width="6.029" height="6.029" transform="translate(168.452 180.282)"/>
          <path id="Path_3044" data-name="Path 3044" class="cls-9" d="M377.361,285.942H275.078a2.71,2.71,0,0,1-2.71-2.71V213.847a2.71,2.71,0,0,1,2.71-2.71H377.361a2.71,2.71,0,0,1,2.71,2.71v69.385a2.71,2.71,0,0,1-2.71,2.71" transform="translate(63.457 49.191)"/>
          <path id="Path_3045" data-name="Path 3045" class="cls-8" d="M273.688,281.177V217.789a1.72,1.72,0,0,1,1.721-1.72H376.416a1.72,1.72,0,0,1,1.72,1.72v63.388a1.721,1.721,0,0,1-1.72,1.721H275.409a1.721,1.721,0,0,1-1.721-1.721" transform="translate(63.764 50.34)"/>
          <path id="Path_3046" data-name="Path 3046" class="cls-8" d="M358.348,213.887a1.494,1.494,0,1,1-1.494-1.494,1.494,1.494,0,0,1,1.494,1.494" transform="translate(82.792 49.484)"/>
          <path id="Path_3047" data-name="Path 3047" class="cls-8" d="M354.343,213.887a1.494,1.494,0,1,1-1.494-1.494,1.494,1.494,0,0,1,1.494,1.494" transform="translate(81.859 49.484)"/>
          <path id="Path_3048" data-name="Path 3048" class="cls-8" d="M350.338,213.887a1.494,1.494,0,1,1-1.494-1.494,1.494,1.494,0,0,1,1.494,1.494" transform="translate(80.926 49.484)"/>
          <path id="Path_3049" data-name="Path 3049" class="cls-6" d="M334.492,246.1a15.516,15.516,0,1,1-15.516-15.516A15.516,15.516,0,0,1,334.492,246.1" transform="translate(70.7 53.722)"/>
          <path id="Path_3050" data-name="Path 3050" class="cls-8" d="M326.118,244.736l-7.182,4.147-7.182,4.146V236.443l7.182,4.147Z" transform="translate(72.633 55.087)"/>
          <rect id="Rectangle_5150" data-name="Rectangle 5150" class="cls-13" width="104.448" height="2.057" transform="translate(337.452 326.233)"/>
          <rect id="Rectangle_5151" data-name="Rectangle 5151" class="cls-15" width="23.53" height="2.057" transform="translate(337.452 326.233)"/>
          <path id="Path_3051" data-name="Path 3051" class="cls-15" d="M294.649,265.721a1.579,1.579,0,1,1-1.578-1.578,1.578,1.578,0,0,1,1.578,1.578" transform="translate(67.912 61.54)"/>
          <path id="Path_3052" data-name="Path 3052" class="cls-14" d="M364.742,277.527h-1.849v-.5h1.6v-1.6h.5v1.849A.25.25,0,0,1,364.742,277.527Z" transform="translate(84.547 64.169)"/>
          <path id="Line_22" data-name="Line 22" class="cls-14" d="M109.938.25h-3.022v-.5h3.022Zm-6.044,0h-3.022v-.5h3.022ZM97.85.25H94.828v-.5H97.85Zm-6.044,0H88.784v-.5h3.022Zm-6.044,0H82.74v-.5h3.022Zm-6.044,0H76.7v-.5h3.022Zm-6.044,0H70.652v-.5h3.022ZM67.63.25H64.608v-.5H67.63Zm-6.044,0H58.564v-.5h3.022Zm-6.044,0H52.52v-.5h3.022ZM49.5.25H46.476v-.5H49.5Zm-6.044,0H40.432v-.5h3.022ZM37.41.25H34.388v-.5H37.41Zm-6.044,0H28.344v-.5h3.022Zm-6.044,0H22.3v-.5h3.022Zm-6.044,0H16.256v-.5h3.022Zm-6.044,0H10.212v-.5h3.022ZM7.19.25H4.168v-.5H7.19ZM1.146.25H0v-.5H1.146Z" transform="translate(333.775 341.446)"/>
          <path id="Path_3053" data-name="Path 3053" class="cls-14" d="M269.545,277.527H267.7a.25.25,0,0,1-.25-.25v-1.849h.5v1.6h1.6Z" transform="translate(62.368 64.169)"/>
          <path id="Line_23" data-name="Line 23" class="cls-14" d="M.25,77.012h-.5v-2.9h.5Zm0-5.81h-.5V68.3h.5Zm0-5.81h-.5V62.487h.5Zm0-5.81h-.5v-2.9h.5Zm0-5.81h-.5v-2.9h.5Zm0-5.81h-.5V45.057h.5Zm0-5.81h-.5v-2.9h.5Zm0-5.81h-.5v-2.9h.5Zm0-5.81h-.5v-2.9h.5Zm0-5.81h-.5v-2.9h.5Zm0-5.81h-.5V16.007h.5Zm0-5.81h-.5V10.2h.5Zm0-5.81h-.5v-2.9h.5Zm0-5.81h-.5V0h.5Z" transform="translate(330.063 259.003)"/>
          <path id="Path_3054" data-name="Path 3054" class="cls-14" d="M267.945,208.959h-.5v-1.849a.25.25,0,0,1,.25-.25h1.849v.5h-1.6Z" transform="translate(62.368 48.253)"/>
          <path id="Line_24" data-name="Line 24" class="cls-14" d="M109.938.25h-1.146v-.5h1.146Zm-4.168,0h-3.022v-.5h3.022Zm-6.044,0H96.7v-.5h3.022Zm-6.044,0H90.66v-.5h3.022Zm-6.044,0H84.616v-.5h3.022Zm-6.044,0H78.572v-.5h3.022ZM75.55.25H72.528v-.5H75.55Zm-6.044,0H66.484v-.5h3.022Zm-6.044,0H60.44v-.5h3.022Zm-6.044,0H54.4v-.5h3.022Zm-6.044,0H48.352v-.5h3.022ZM45.33.25H42.308v-.5H45.33Zm-6.044,0H36.264v-.5h3.022Zm-6.044,0H30.22v-.5h3.022ZM27.2.25H24.176v-.5H27.2Zm-6.044,0H18.132v-.5h3.022ZM15.11.25H12.088v-.5H15.11ZM9.066.25H6.044v-.5H9.066ZM3.022.25H0v-.5H3.022Z" transform="translate(335.639 255.362)"/>
          <path id="Path_3055" data-name="Path 3055" class="cls-14" d="M364.992,208.959h-.5v-1.6h-1.6v-.5h1.849a.25.25,0,0,1,.25.25Z" transform="translate(84.547 48.253)"/>
          <path id="Line_25" data-name="Line 25" class="cls-14" d="M.25,77.012h-.5V75.53h.5Zm0-4.387h-.5v-2.9h.5Zm0-5.81h-.5V63.91h.5Zm0-5.81h-.5V58.1h.5Zm0-5.81h-.5v-2.9h.5Zm0-5.81h-.5V46.48h.5Zm0-5.81h-.5v-2.9h.5Zm0-5.81h-.5v-2.9h.5Zm0-5.81h-.5v-2.9h.5Zm0-5.81h-.5V23.24h.5Zm0-5.81h-.5V17.43h.5Zm0-5.81h-.5v-2.9h.5Zm0-5.81h-.5V5.81h.5Zm0-5.81h-.5V0h.5Z" transform="translate(449.289 260.793)"/>
          <rect id="Rectangle_5152" data-name="Rectangle 5152" class="cls-14" width="4.669" height="4.669" transform="translate(327.729 253.027)"/>
          <rect id="Rectangle_5153" data-name="Rectangle 5153" class="cls-9" width="4.669" height="4.669" transform="translate(327.729 339.112)"/>
          <rect id="Rectangle_5154" data-name="Rectangle 5154" class="cls-9" width="4.669" height="4.669" transform="translate(446.954 253.027)"/>
          <rect id="Rectangle_5155" data-name="Rectangle 5155" class="cls-9" width="4.669" height="4.669" transform="translate(446.954 339.112)"/>
          <path id="Path_3056" data-name="Path 3056" class="cls-5" d="M355.348,123.466H304.357a1.8,1.8,0,0,1-1.8-1.8V85.235a1.8,1.8,0,0,1,1.8-1.8h20.726a1.8,1.8,0,0,1,1.275.528l3.369,3.369a1.8,1.8,0,0,0,1.275.528h24.346a1.8,1.8,0,0,1,1.8,1.8v32a1.8,1.8,0,0,1-1.8,1.8" transform="translate(70.489 19.438)"/>
          <path id="Path_3057" data-name="Path 3057" class="cls-13" d="M349.806,67.4v45.853H306.519v-52.7h36.446Z" transform="translate(71.413 14.11)"/>
          <path id="Path_3058" data-name="Path 3058" class="cls-16" d="M336.077,67.4V60.561l6.842,6.842Z" transform="translate(78.3 14.11)"/>
          <path id="Path_3059" data-name="Path 3059" class="cls-8" d="M351.981,69.349V115.2H308.693v-52.7h36.446Z" transform="translate(71.92 14.563)"/>
          <path id="Path_3060" data-name="Path 3060" class="cls-5" d="M356.9,122.488H305.913a1.8,1.8,0,0,1-1.8-1.8V89.431a1.8,1.8,0,0,1,1.8-1.8h20.726a1.8,1.8,0,0,1,1.275.528l3.369,3.369a1.8,1.8,0,0,0,1.275.529H356.9a1.8,1.8,0,0,1,1.8,1.8v26.83a1.8,1.8,0,0,1-1.8,1.8" transform="translate(70.852 20.416)"/>
          <path id="Path_3061" data-name="Path 3061" class="cls-16" d="M338.252,69.349V62.507l6.842,6.842Z" transform="translate(78.806 14.563)"/>
          <rect id="Rectangle_5156" data-name="Rectangle 5156" class="cls-16" width="32.779" height="1.782" transform="translate(382.46 80.077)"/>
          <rect id="Rectangle_5157" data-name="Rectangle 5157" class="cls-16" width="39.372" height="1.12" transform="translate(382.574 86.791)"/>
          <rect id="Rectangle_5158" data-name="Rectangle 5158" class="cls-16" width="39.372" height="1.12" transform="translate(382.574 89.971)"/>
          <rect id="Rectangle_5159" data-name="Rectangle 5159" class="cls-16" width="32.36" height="1.12" transform="translate(382.574 93.149)"/>
          <rect id="Rectangle_5160" data-name="Rectangle 5160" class="cls-16" width="32.36" height="1.12" transform="translate(382.574 96.329)"/>
          <rect id="Rectangle_5161" data-name="Rectangle 5161" class="cls-16" width="21.879" height="1.12" transform="translate(382.574 99.509)"/>
          <rect id="Rectangle_5162" data-name="Rectangle 5162" class="cls-16" width="21.879" height="1.12" transform="translate(382.574 102.689)"/>
          <path id="Path_3067" data-name="Path 3067" class="cls-17" d="M345.668,264.357H93.3a5.64,5.64,0,0,1-5.64-5.64V116.028a5.64,5.64,0,0,1,5.64-5.64H345.668a5.64,5.64,0,0,1,5.64,5.64V258.717a5.64,5.64,0,0,1-5.64,5.64" transform="translate(20.422 25.718)"/>
          <path id="Path_3068" data-name="Path 3068" class="cls-8" d="M90.605,254.157V124.8a3.4,3.4,0,0,1,3.4-3.4H343.586a3.4,3.4,0,0,1,3.4,3.4V254.157a3.4,3.4,0,0,1-3.4,3.4H94a3.4,3.4,0,0,1-3.4-3.4" transform="translate(21.109 28.285)"/>
          <path id="Path_3069" data-name="Path 3069" class="cls-8" d="M298.423,116.532a3.339,3.339,0,1,1-3.339-3.339,3.338,3.338,0,0,1,3.339,3.339" transform="translate(67.971 26.372)"/>
          <path id="Path_3070" data-name="Path 3070" class="cls-8" d="M289.476,116.532a3.339,3.339,0,1,1-3.339-3.339,3.338,3.338,0,0,1,3.339,3.339" transform="translate(65.887 26.372)"/>
          <path id="Path_3071" data-name="Path 3071" class="cls-8" d="M280.53,116.532a3.339,3.339,0,1,1-3.339-3.339,3.338,3.338,0,0,1,3.339,3.339" transform="translate(63.802 26.372)"/>
          <path id="Path_3072" data-name="Path 3072" class="cls-14" d="M175.342,184.892h-1.849v-.5h1.6v-1.6h.5v1.849A.25.25,0,0,1,175.342,184.892Z" transform="translate(40.42 42.587)"/>
          <path id="Line_26" data-name="Line 26" class="cls-17" d="M88.108.25H85.067v-.5h3.041Zm-6.082,0H78.985v-.5h3.041Zm-6.082,0H72.9v-.5h3.041Zm-6.082,0H66.821v-.5h3.041ZM63.78.25H60.739v-.5H63.78ZM57.7.25H54.657v-.5H57.7Zm-6.082,0H48.575v-.5h3.041Zm-6.082,0H42.493v-.5h3.041Zm-6.082,0H36.411v-.5h3.041ZM33.37.25H30.329v-.5H33.37Zm-6.082,0H24.247v-.5h3.041Zm-6.082,0H18.165v-.5h3.041Zm-6.082,0H12.083v-.5h3.041ZM9.042.25H6v-.5H9.042ZM2.96.25H0v-.5H2.96Z" transform="translate(122.056 227.229)"/>
          <path id="Path_3073" data-name="Path 3073" class="cls-14" d="M97.822,184.892H95.972a.25.25,0,0,1-.25-.25v-1.849h.5v1.6h1.6Z" transform="translate(22.36 42.587)"/>
          <path id="Line_27" data-name="Line 27" class="cls-17" d="M.25,60.4h-.5v-3.16h.5Zm0-6.32h-.5v-3.16h.5Zm0-6.32h-.5V44.6h.5Zm0-6.32h-.5v-3.16h.5Zm0-6.32h-.5v-3.16h.5Zm0-6.32h-.5v-3.16h.5Zm0-6.32h-.5v-3.16h.5Zm0-6.32h-.5V13h.5Zm0-6.32h-.5V6.679h.5Zm0-6.32h-.5V.359h.5Z" transform="translate(118.332 161.084)"/>
          <path id="Path_3074" data-name="Path 3074" class="cls-14" d="M96.222,129.415h-.5v-1.849a.25.25,0,0,1,.25-.25h1.849v.5h-1.6Z" transform="translate(22.36 29.72)"/>
          <path id="Line_28" data-name="Line 28" class="cls-17" d="M88.108.25h-2.96v-.5h2.96Zm-6,0H79.066v-.5h3.041Zm-6.082,0H72.984v-.5h3.041Zm-6.082,0H66.9v-.5h3.041Zm-6.082,0H60.82v-.5h3.041Zm-6.082,0H54.738v-.5h3.041ZM51.7.25H48.656v-.5H51.7Zm-6.082,0H42.574v-.5h3.041Zm-6.082,0H36.492v-.5h3.041Zm-6.082,0H30.41v-.5h3.041Zm-6.082,0H24.328v-.5h3.041Zm-6.082,0H18.246v-.5h3.041ZM15.2.25H12.164v-.5H15.2ZM9.123.25H6.082v-.5H9.123ZM3.041.25H0v-.5H3.041Z" transform="translate(123.931 157.286)"/>
          <path id="Path_3075" data-name="Path 3075" class="cls-14" d="M175.592,129.415h-.5v-1.6h-1.6v-.5h1.849a.25.25,0,0,1,.25.25Z" transform="translate(40.42 29.72)"/>
          <path id="Line_29" data-name="Line 29" class="cls-17" d="M.25,60.04h-.5V56.88h.5Zm0-6.32h-.5V50.56h.5Zm0-6.32h-.5V44.24h.5Zm0-6.32h-.5V37.92h.5Zm0-6.32h-.5V31.6h.5Zm0-6.32h-.5V25.28h.5Zm0-6.32h-.5V18.96h.5Zm0-6.32h-.5V12.64h.5Zm0-6.32h-.5V6.32h.5Zm0-6.32h-.5V0h.5Z" transform="translate(215.763 163.032)"/>
          <path id="Path_3098" data-name="Path 3098" class="cls-5" d="M0,0H97.43V69.943H0Z" transform="translate(129.724 168.558)"/>
          <path id="Path_3076" data-name="Path 3076" class="cls-8" d="M195.184,199.432H110.167a1,1,0,0,1-.884-1.468l26.787-50.532a1,1,0,0,1,1.749-.033l19.46,33.569,12.733-13.44a1,1,0,0,1,1.5.059L195.961,197.8a1,1,0,0,1-.777,1.629Zm-83.355-2h81.259l-22.41-27.7-12.868,13.582a1,1,0,0,1-1.591-.186l-19.227-33.167Z" transform="translate(25.667 34.458)"/>
          <path id="Path_3077" data-name="Path 3077" class="cls-8" d="M153.04,142.41a9.319,9.319,0,1,1-9.318,9.319A9.329,9.329,0,0,1,153.04,142.41Zm0,16.638a7.319,7.319,0,1,0-7.318-7.319A7.327,7.327,0,0,0,153.04,159.048Z" transform="translate(33.718 33.412)"/>
          <rect id="Rectangle_5164" data-name="Rectangle 5164" class="cls-7" width="121.362" height="7.462" transform="translate(238.354 158.365)"/>
          <rect id="Rectangle_5165" data-name="Rectangle 5165" class="cls-7" width="34.877" height="3.731" transform="translate(238.353 172.109)"/>
          <rect id="Rectangle_5166" data-name="Rectangle 5166" class="cls-7" width="14.153" height="3.731" transform="translate(277.988 172.109)"/>
          <rect id="Rectangle_5167" data-name="Rectangle 5167" class="cls-7" width="37.142" height="3.731" transform="translate(297.578 172.109)"/>
          <rect id="Rectangle_5168" data-name="Rectangle 5168" class="cls-7" width="22.062" height="3.731" transform="translate(337.654 172.109)"/>
          <rect id="Rectangle_5169" data-name="Rectangle 5169" class="cls-7" width="45.974" height="3.731" transform="translate(238.354 181.41)"/>
          <rect id="Rectangle_5170" data-name="Rectangle 5170" class="cls-7" width="17.891" height="3.731" transform="translate(289.425 181.41)"/>
          <rect id="Rectangle_5171" data-name="Rectangle 5171" class="cls-7" width="17.891" height="3.731" transform="translate(311.394 181.41)"/>
          <rect id="Rectangle_5172" data-name="Rectangle 5172" class="cls-7" width="22.716" height="3.731" transform="translate(332.048 181.41)"/>
          <rect id="Rectangle_5173" data-name="Rectangle 5173" class="cls-7" width="12.795" height="3.731" transform="translate(238.353 190.71)"/>
          <rect id="Rectangle_5174" data-name="Rectangle 5174" class="cls-7" width="22.988" height="3.731" transform="translate(298.37 190.71)"/>
          <rect id="Rectangle_5175" data-name="Rectangle 5175" class="cls-7" width="40.426" height="3.731" transform="translate(254.094 190.71)"/>
          <rect id="Rectangle_5176" data-name="Rectangle 5176" class="cls-7" width="28.989" height="3.731" transform="translate(238.353 200.011)"/>
          <rect id="Rectangle_5177" data-name="Rectangle 5177" class="cls-7" width="9.737" height="3.731" transform="translate(272.326 200.011)"/>
          <rect id="Rectangle_5178" data-name="Rectangle 5178" class="cls-7" width="19.136" height="3.731" transform="translate(286.594 200.011)"/>
          <rect id="Rectangle_5179" data-name="Rectangle 5179" class="cls-7" width="11.096" height="3.731" transform="translate(238.354 209.311)"/>
          <rect id="Rectangle_5180" data-name="Rectangle 5180" class="cls-7" width="24.346" height="3.731" transform="translate(253.641 209.311)"/>
          <rect id="Rectangle_5181" data-name="Rectangle 5181" class="cls-7" width="108.822" height="32.369" transform="translate(118.333 245.928)"/>
          <rect id="Rectangle_5182" data-name="Rectangle 5182" class="cls-8" width="20.652" height="19.209" transform="translate(121.223 248.124)"/>
          <rect id="Rectangle_5183" data-name="Rectangle 5183" class="cls-8" width="20.652" height="5.707" transform="translate(121.223 270.187)"/>
          <rect id="Rectangle_5184" data-name="Rectangle 5184" class="cls-8" width="20.652" height="19.209" transform="translate(147.54 256.686)"/>
          <rect id="Rectangle_5185" data-name="Rectangle 5185" class="cls-8" width="20.652" height="5.707" transform="translate(147.54 248.124)"/>
          <rect id="Rectangle_5186" data-name="Rectangle 5186" class="cls-8" width="20.652" height="19.209" transform="translate(175.897 248.124)"/>
          <rect id="Rectangle_5187" data-name="Rectangle 5187" class="cls-8" width="20.652" height="5.707" transform="translate(175.897 270.187)"/>
          <rect id="Rectangle_5188" data-name="Rectangle 5188" class="cls-8" width="20.652" height="19.209" transform="translate(202.214 256.686)"/>
          <rect id="Rectangle_5189" data-name="Rectangle 5189" class="cls-8" width="20.652" height="5.707" transform="translate(202.214 248.124)"/>
          <path id="Path_3078" data-name="Path 3078" class="cls-5" d="M317.857,184.89H195.364v-4.15a2.542,2.542,0,0,1,2.542-2.542H315.315a2.542,2.542,0,0,1,2.542,2.542Z" transform="translate(45.516 41.517)"/>
          <path id="Path_3079" data-name="Path 3079" class="cls-5" d="M316.624,182.811v50.73a2.116,2.116,0,0,1-2.113,2.113H198.71a2.116,2.116,0,0,1-2.113-2.113v-50.73Zm1.233-1.233H195.364v51.963a3.346,3.346,0,0,0,3.346,3.346h115.8a3.346,3.346,0,0,0,3.346-3.346Z" transform="translate(45.516 42.304)"/>
          <rect id="Rectangle_5190" data-name="Rectangle 5190" class="cls-7" width="15.412" height="44.465" transform="translate(245.141 230.532)"/>
          <rect id="Rectangle_5191" data-name="Rectangle 5191" class="cls-7" width="74.467" height="44.465" transform="translate(283.551 230.532)"/>
          <rect id="Rectangle_5192" data-name="Rectangle 5192" class="cls-8" width="66.852" height="4.534" transform="translate(287.519 232.89)"/>
          <rect id="Rectangle_5193" data-name="Rectangle 5193" class="cls-8" width="66.852" height="2.267" transform="translate(287.519 240.151)"/>
          <rect id="Rectangle_5194" data-name="Rectangle 5194" class="cls-7" width="15.412" height="5.303" transform="translate(263.793 240.151)"/>
          <rect id="Rectangle_5195" data-name="Rectangle 5195" class="cls-8" width="14.38" height="27.193" transform="translate(287.518 244.468)"/>
          <rect id="Rectangle_5196" data-name="Rectangle 5196" class="cls-8" width="14.38" height="27.193" transform="translate(322.824 244.468)"/>
          <path id="Path_3080" data-name="Path 3080" class="cls-8" d="M263.015,226.2H247.4V197.773h15.613Zm-14.38-1.233h13.147V199.006H248.635Z" transform="translate(57.64 46.077)"/>
          <path id="Path_3081" data-name="Path 3081" class="cls-8" d="M290.86,226.2H275.247V197.773H290.86Zm-14.381-1.233h13.147V199.006H276.479Z" transform="translate(64.127 46.077)"/>
          <rect id="Rectangle_5197" data-name="Rectangle 5197" class="cls-7" width="15.412" height="5.303" transform="translate(263.793 249.771)"/>
          <rect id="Rectangle_5198" data-name="Rectangle 5198" class="cls-7" width="15.412" height="5.303" transform="translate(263.793 259.391)"/>
          <rect id="Rectangle_5199" data-name="Rectangle 5199" class="cls-7" width="15.412" height="5.303" transform="translate(263.793 269.009)"/>
          <path id="Path_3082" data-name="Path 3082" class="cls-6" d="M209.153,65.793h-44.5a10.682,10.682,0,0,0-9.463,15.653l-3.481,6.339a1.9,1.9,0,0,0,2.412,2.669l8.3-3.519a10.705,10.705,0,0,0,2.228.237h44.5a10.689,10.689,0,0,0,0-21.379" transform="translate(35.289 15.329)"/>
          <path id="Path_3083" data-name="Path 3083" class="cls-8" d="M168.261,75.234a3.782,3.782,0,1,1-3.782-3.782,3.782,3.782,0,0,1,3.782,3.782" transform="translate(37.439 16.647)"/>
          <path id="Path_3084" data-name="Path 3084" class="cls-8" d="M179.456,75.234a3.782,3.782,0,1,1-3.782-3.782,3.782,3.782,0,0,1,3.782,3.782" transform="translate(40.048 16.647)"/>
          <path id="Path_3085" data-name="Path 3085" class="cls-8" d="M190.651,75.234a3.782,3.782,0,1,1-3.783-3.782,3.783,3.783,0,0,1,3.783,3.782" transform="translate(42.656 16.647)"/>
          <path id="Path_3086" data-name="Path 3086" class="cls-8" d="M201.846,75.234a3.782,3.782,0,1,1-3.782-3.782,3.782,3.782,0,0,1,3.782,3.782" transform="translate(45.264 16.647)"/>
          <path id="Path_3087" data-name="Path 3087" class="cls-6" d="M343.19,153.665h-44.5a10.682,10.682,0,0,0-9.463,15.653l-3.481,6.34a1.9,1.9,0,0,0,2.412,2.668l8.3-3.519a10.7,10.7,0,0,0,2.228.237h44.5a10.689,10.689,0,0,0,0-21.379" transform="translate(66.517 35.801)"/>
          <path id="Path_3088" data-name="Path 3088" class="cls-8" d="M302.3,163.106a3.782,3.782,0,1,1-3.781-3.782,3.781,3.781,0,0,1,3.781,3.782" transform="translate(68.668 37.119)"/>
          <path id="Path_3089" data-name="Path 3089" class="cls-8" d="M313.494,163.106a3.782,3.782,0,1,1-3.783-3.782,3.782,3.782,0,0,1,3.783,3.782" transform="translate(71.276 37.119)"/>
          <path id="Path_3090" data-name="Path 3090" class="cls-8" d="M324.689,163.106a3.782,3.782,0,1,1-3.783-3.782,3.782,3.782,0,0,1,3.783,3.782" transform="translate(73.884 37.119)"/>
          <path id="Path_3091" data-name="Path 3091" class="cls-8" d="M335.883,163.106a3.782,3.782,0,1,1-3.782-3.782,3.781,3.781,0,0,1,3.782,3.782" transform="translate(76.492 37.119)"/>
          <path id="Path_3092" data-name="Path 3092" class="cls-6" d="M126.319,222.974l-1.792,1.515a49.286,49.286,0,0,1-20.612,10.363l-2.567.6a27.4,27.4,0,1,0,5.542,16.521c0-.424-.012-.846-.032-1.266l2.5-1.735a49.3,49.3,0,0,0,18.635-24.863,1.051,1.051,0,0,0-1.674-1.136" transform="translate(12.137 51.89)"/>
          <path id="Path_3093" data-name="Path 3093" class="cls-8" d="M79.636,233.029l3.709,7.514a2.228,2.228,0,0,0,1.677,1.219l8.293,1.2a2.227,2.227,0,0,1,1.234,3.8l-6,5.849a2.224,2.224,0,0,0-.64,1.972l1.415,8.259a2.227,2.227,0,0,1-3.232,2.349l-7.416-3.9a2.234,2.234,0,0,0-2.074,0l-7.416,3.9a2.228,2.228,0,0,1-3.232-2.349l1.415-8.259a2.225,2.225,0,0,0-.64-1.972l-6-5.849a2.227,2.227,0,0,1,1.235-3.8l8.292-1.2a2.228,2.228,0,0,0,1.677-1.219l3.709-7.514a2.227,2.227,0,0,1,3.995,0" transform="translate(13.991 54.002)"/>
          <rect id="Rectangle_5200" data-name="Rectangle 5200" class="cls-3" width="71.612" height="18.492" transform="translate(30.91 203.796)"/>
          <path id="Path_3094" data-name="Path 3094" class="cls-8" d="M49.546,167.683l-4.46,12.3h-3.43l-2.767-7.638-2.859,7.638H32.6l-4.436-12.3h3.361l2.9,8.324,3.018-8.324h3.02l2.927,8.324,2.995-8.324Z" transform="translate(6.562 39.067)"/>
          <path id="Path_3095" data-name="Path 3095" class="cls-8" d="M66.684,167.683l-4.46,12.3h-3.43l-2.767-7.638-2.859,7.638h-3.43l-4.436-12.3h3.361l2.9,8.324,3.018-8.324h3.02l2.927,8.324,3-8.324Z" transform="translate(10.554 39.067)"/>
          <path id="Path_3096" data-name="Path 3096" class="cls-8" d="M83.823,167.683l-4.46,12.3h-3.43l-2.767-7.638-2.859,7.638h-3.43l-4.436-12.3H65.8l2.9,8.324,3.018-8.324h3.018l2.927,8.324,3-8.324Z" transform="translate(14.547 39.067)"/>
          <path id="Line_30" data-name="Line 30" class="cls-9" d="M7.584.5H0v-1H7.584Z" transform="translate(27.117 203.796)"/>
          <path id="Line_31" data-name="Line 31" class="cls-9" d="M7.584.5H0v-1H7.584Z" transform="translate(27.117 222.288)"/>
          <path id="Line_32" data-name="Line 32" class="cls-9" d="M.5,18.492h-1V0h1Z" transform="translate(30.909 203.796)"/>
          <path id="Path_3097" data-name="Path 3097" class="cls-6" d="M189.034,166.521l-6.273-1.682-6.275-1.681,1.682,6.273,1.681,6.275,3.436-3.436,7.167,7.166,2.312-2.313-7.166-7.166Z" transform="translate(41.118 38.013)"/>
        </g>
      </g>
    </g>
  </g>
</svg>
